<?xml version="1.0" encoding="UTF-8" standalone="no"?><!DOCTYPE svg PUBLIC "-//W3C//DTD SVG 1.1//EN" "http://www.w3.org/Graphics/SVG/1.1/DTD/svg11.dtd"><svg width="100%" height="100%" viewBox="0 0 1690 370" version="1.1" xmlns="http://www.w3.org/2000/svg" xmlns:xlink="http://www.w3.org/1999/xlink" xml:space="preserve" xmlns:serif="http://www.serif.com/" style="fill-rule:evenodd;clip-rule:evenodd;stroke-linejoin:round;stroke-miterlimit:2;"><g><g><rect x="0" y="0" width="117.5" height="80" style="fill:#575756;"/><rect x="165" y="0" width="25" height="60" style="fill:#575756;"/><rect x="210" y="0" width="25" height="60" style="fill:#575756;"/><path d="M235,80l-70,0l-165,290l70,0l165,-290Z" style="fill:#575756;"/></g><g><path d="M393.869,112.67c-0.809,1.345 -1.956,2.017 -3.44,2.017c-1.485,0 -3.542,-1.311 -6.173,-3.932c-2.631,-2.622 -6.308,-5.546 -11.03,-8.773c-4.722,-3.227 -10.793,-6.151 -18.214,-8.773c-7.421,-2.621 -16.595,-3.932 -27.524,-3.932c-11.063,-0 -20.879,1.647 -29.446,4.941c-8.568,3.294 -15.752,7.764 -21.554,13.411c-5.801,5.646 -10.186,12.133 -13.155,19.461c-2.968,7.327 -4.452,15.024 -4.452,23.091c-0,10.352 2.091,18.99 6.274,25.914c4.182,6.924 9.714,12.739 16.595,17.445c6.881,4.705 14.673,8.671 23.375,11.898c8.702,3.227 17.641,6.353 26.815,9.378c9.175,3.025 18.114,6.251 26.816,9.68c8.702,3.428 16.494,7.764 23.375,13.007c6.881,5.244 12.413,11.731 16.595,19.462c4.183,7.73 6.274,17.309 6.274,28.737c-0,11.697 -1.99,22.688 -5.97,32.973c-3.98,10.285 -9.782,19.226 -17.405,26.822c-7.623,7.596 -16.933,13.579 -27.929,17.949c-10.996,4.369 -23.509,6.554 -37.541,6.554c-9.58,-0 -18.248,-0.84 -26.006,-2.521c-7.758,-1.68 -14.909,-4.1 -21.453,-7.26c-6.543,-3.159 -12.547,-7.025 -18.011,-11.596c-5.465,-4.571 -10.693,-9.747 -15.685,-15.528l2.631,-4.034c0.675,-0.672 1.248,-1.176 1.72,-1.512c0.472,-0.336 1.181,-0.504 2.125,-0.504c0.945,-0 2.26,0.84 3.947,2.52c1.686,1.681 3.879,3.765 6.577,6.252c2.698,2.487 5.937,5.176 9.714,8.067c3.778,2.89 8.264,5.579 13.459,8.067c5.194,2.487 11.198,4.571 18.012,6.251c6.813,1.681 14.537,2.521 23.172,2.521c12.278,0 23.274,-1.916 32.988,-5.747c9.715,-3.832 17.911,-9.075 24.59,-15.731c6.678,-6.655 11.771,-14.419 15.279,-23.292c3.508,-8.874 5.262,-18.352 5.262,-28.436c0,-10.755 -2.091,-19.629 -6.274,-26.62c-4.182,-6.991 -9.68,-12.84 -16.494,-17.545c-6.813,-4.706 -14.605,-8.638 -23.375,-11.798c-8.77,-3.159 -17.708,-6.184 -26.815,-9.075c-9.107,-2.89 -18.046,-6.05 -26.816,-9.478c-8.769,-3.429 -16.561,-7.798 -23.375,-13.109c-6.813,-5.31 -12.311,-11.898 -16.494,-19.763c-4.182,-7.865 -6.273,-17.714 -6.273,-29.545c-0,-9.277 1.753,-18.15 5.261,-26.62c3.508,-8.47 8.602,-15.966 15.28,-22.486c6.679,-6.521 14.909,-11.731 24.691,-15.63c9.781,-3.899 21.014,-5.848 33.696,-5.848c14.302,0 26.95,2.286 37.947,6.857c10.996,4.571 21.283,11.697 30.863,21.377l-2.429,4.436Z" style="fill:#575756;fill-rule:nonzero;"/><path d="M579.663,360.306l0,9.694l-154.663,0l-0,-290l154.663,0l0,9.694l-143.425,0l-0,128.499l103.425,0l0,9.488l-103.425,0l-0,132.625l143.425,-0Z" style="fill:#575756;fill-rule:nonzero;"/><path d="M783.133,324.624c0.531,0 1.26,0.337 2.189,1.009l4.178,4.437c-5.836,5.915 -12.137,11.327 -18.901,16.234c-6.765,4.907 -14.193,9.109 -22.284,12.604c-8.091,3.496 -16.945,6.218 -26.562,8.168c-9.616,1.949 -20.194,2.924 -31.734,2.924c-18.968,-0 -36.443,-3.395 -52.426,-10.184c-15.984,-6.79 -29.745,-16.47 -41.285,-29.041c-11.54,-12.57 -20.559,-27.796 -27.059,-45.678c-6.499,-17.881 -9.749,-37.913 -9.749,-60.097c0,-21.646 3.25,-41.376 9.749,-59.19c6.5,-17.814 15.685,-33.074 27.556,-45.779c11.872,-12.705 26.064,-22.553 42.578,-29.544c16.514,-6.991 34.719,-10.487 54.615,-10.487c18.703,0 35.283,2.891 49.741,8.672c14.458,5.781 27.921,14.117 40.389,25.007l-2.984,4.436c-0.531,0.942 -1.592,1.412 -3.184,1.412c-0.796,0 -2.155,-0.739 -4.079,-2.218c-1.923,-1.479 -4.443,-3.328 -7.56,-5.546c-3.117,-2.218 -6.897,-4.639 -11.341,-7.26c-4.443,-2.622 -9.65,-5.042 -15.618,-7.26c-5.969,-2.219 -12.734,-4.067 -20.295,-5.546c-7.56,-1.479 -15.916,-2.219 -25.069,-2.219c-18.039,0 -34.619,3.16 -49.74,9.479c-15.121,6.319 -28.12,15.327 -38.997,27.024c-10.876,11.696 -19.332,25.914 -25.367,42.653c-6.036,16.738 -9.053,35.527 -9.053,56.366c-0,21.242 3.017,40.233 9.053,56.971c6.035,16.739 14.424,30.923 25.168,42.553c10.744,11.629 23.411,20.536 38.002,26.721c14.591,6.184 30.441,9.277 47.552,9.277c10.744,-0 20.36,-0.74 28.849,-2.219c8.489,-1.479 16.282,-3.697 23.378,-6.655c7.097,-2.958 13.662,-6.588 19.698,-10.89c6.035,-4.302 12.037,-9.21 18.006,-14.722c0.928,-0.941 1.79,-1.412 2.586,-1.412Z" style="fill:#575756;fill-rule:nonzero;"/><path d="M1040,225.202c-0,22.214 -3.161,42.241 -9.483,60.08c-6.322,17.839 -15.213,33.052 -26.672,45.641c-11.459,12.588 -25.157,22.248 -41.094,28.98c-15.937,6.731 -33.587,10.097 -52.949,10.097c-19.098,-0 -36.616,-3.366 -52.553,-10.097c-15.937,-6.732 -29.635,-16.392 -41.094,-28.98c-11.459,-12.589 -20.35,-27.802 -26.672,-45.641c-6.322,-17.839 -9.483,-37.866 -9.483,-60.08c-0,-22.08 3.161,-42.073 9.483,-59.979c6.322,-17.906 15.213,-33.154 26.672,-45.742c11.459,-12.588 25.157,-22.315 41.094,-29.182c15.937,-6.866 33.455,-10.299 52.553,-10.299c19.362,0 37.012,3.399 52.949,10.198c15.937,6.799 29.635,16.493 41.094,29.081c11.459,12.588 20.35,27.836 26.672,45.742c6.322,17.906 9.483,37.966 9.483,60.181Zm-11.459,-0c0,-21.137 -2.865,-40.087 -8.594,-56.849c-5.73,-16.762 -13.83,-30.999 -24.301,-42.712c-10.471,-11.713 -22.984,-20.667 -37.538,-26.86c-14.554,-6.193 -30.656,-9.289 -48.306,-9.289c-17.386,-0 -33.356,3.096 -47.91,9.289c-14.554,6.193 -27.067,15.147 -37.538,26.86c-10.471,11.713 -18.637,25.95 -24.498,42.712c-5.862,16.762 -8.792,35.712 -8.792,56.849c-0,21.137 2.93,40.087 8.792,56.849c5.861,16.762 14.027,30.932 24.498,42.51c10.471,11.579 22.984,20.465 37.538,26.658c14.554,6.193 30.524,9.289 47.91,9.289c17.65,0 33.752,-3.096 48.306,-9.289c14.554,-6.193 27.067,-15.079 37.538,-26.658c10.471,-11.578 18.571,-25.748 24.301,-42.51c5.729,-16.762 8.594,-35.712 8.594,-56.849Z" style="fill:#575756;fill-rule:nonzero;"/><path d="M1270,80l-0,290l-4.574,0c-1.723,0 -3.182,-0.825 -4.375,-2.475l-191.903,-268.962c0.132,1.238 0.232,2.51 0.298,3.816c0.066,1.306 0.099,2.51 0.099,3.61l0,264.011l-9.545,0l-0,-290l4.972,0c1.06,0 1.922,0.172 2.585,0.516c0.663,0.343 1.392,1.065 2.187,2.165l191.108,267.931c-0.132,-1.238 -0.232,-2.475 -0.298,-3.713c-0.066,-1.238 -0.099,-2.406 -0.099,-3.506l-0,-263.393l9.545,0Z" style="fill:#575756;fill-rule:nonzero;"/><path d="M1520,225c-0,22.688 -3.159,43.005 -9.476,60.95c-6.318,17.944 -15.202,33.138 -26.653,45.583c-11.45,12.444 -25.139,21.966 -41.064,28.567c-15.926,6.6 -33.497,9.9 -52.713,9.9l-100.094,0l-0,-290l100.094,0c19.216,0 36.787,3.3 52.713,9.9c15.925,6.601 29.614,16.123 41.064,28.567c11.451,12.445 20.335,27.639 26.653,45.583c6.317,17.945 9.476,38.262 9.476,60.95Zm-11.451,0c0,-21.588 -2.862,-40.805 -8.588,-57.649c-5.725,-16.845 -13.819,-31.042 -24.283,-42.593c-10.463,-11.55 -22.967,-20.351 -37.511,-26.401c-14.543,-6.05 -30.568,-9.075 -48.073,-9.075l-89.236,-0l0,271.436l89.236,0c17.505,0 33.53,-3.025 48.073,-9.075c14.544,-6.05 27.048,-14.851 37.511,-26.401c10.464,-11.551 18.558,-25.748 24.283,-42.593c5.726,-16.844 8.588,-36.061 8.588,-57.649Z" style="fill:#575756;fill-rule:nonzero;"/><path d="M1678.87,112.67c-0.809,1.345 -1.956,2.017 -3.44,2.017c-1.485,0 -3.542,-1.311 -6.173,-3.932c-2.631,-2.622 -6.308,-5.546 -11.03,-8.773c-4.722,-3.227 -10.793,-6.151 -18.214,-8.773c-7.421,-2.621 -16.595,-3.932 -27.524,-3.932c-11.063,-0 -20.879,1.647 -29.446,4.941c-8.568,3.294 -15.752,7.764 -21.554,13.411c-5.801,5.646 -10.186,12.133 -13.155,19.461c-2.968,7.327 -4.452,15.024 -4.452,23.091c-0,10.352 2.091,18.99 6.274,25.914c4.182,6.924 9.714,12.739 16.595,17.445c6.881,4.705 14.673,8.671 23.375,11.898c8.702,3.227 17.641,6.353 26.815,9.378c9.175,3.025 18.114,6.251 26.816,9.68c8.702,3.428 16.494,7.764 23.375,13.007c6.881,5.244 12.413,11.731 16.595,19.462c4.183,7.73 6.274,17.309 6.274,28.737c-0,11.697 -1.99,22.688 -5.97,32.973c-3.98,10.285 -9.782,19.226 -17.405,26.822c-7.623,7.596 -16.933,13.579 -27.929,17.949c-10.996,4.369 -23.509,6.554 -37.541,6.554c-9.58,-0 -18.248,-0.84 -26.006,-2.521c-7.758,-1.68 -14.909,-4.1 -21.453,-7.26c-6.543,-3.159 -12.547,-7.025 -18.011,-11.596c-5.465,-4.571 -10.693,-9.747 -15.685,-15.528l2.631,-4.034c0.675,-0.672 1.248,-1.176 1.72,-1.512c0.472,-0.336 1.181,-0.504 2.125,-0.504c0.945,-0 2.26,0.84 3.947,2.52c1.686,1.681 3.879,3.765 6.577,6.252c2.698,2.487 5.937,5.176 9.714,8.067c3.778,2.89 8.264,5.579 13.459,8.067c5.194,2.487 11.198,4.571 18.012,6.251c6.813,1.681 14.537,2.521 23.172,2.521c12.278,0 23.274,-1.916 32.988,-5.747c9.715,-3.832 17.911,-9.075 24.59,-15.731c6.678,-6.655 11.771,-14.419 15.279,-23.292c3.508,-8.874 5.262,-18.352 5.262,-28.436c0,-10.755 -2.091,-19.629 -6.274,-26.62c-4.182,-6.991 -9.68,-12.84 -16.494,-17.545c-6.813,-4.706 -14.605,-8.638 -23.375,-11.798c-8.77,-3.159 -17.708,-6.184 -26.815,-9.075c-9.107,-2.89 -18.046,-6.05 -26.816,-9.478c-8.769,-3.429 -16.561,-7.798 -23.375,-13.109c-6.813,-5.31 -12.311,-11.898 -16.494,-19.763c-4.182,-7.865 -6.273,-17.714 -6.273,-29.545c-0,-9.277 1.753,-18.15 5.261,-26.62c3.508,-8.47 8.602,-15.966 15.28,-22.486c6.679,-6.521 14.909,-11.731 24.691,-15.63c9.781,-3.899 21.014,-5.848 33.696,-5.848c14.302,0 26.95,2.286 37.947,6.857c10.996,4.571 21.283,11.697 30.863,21.377l-2.429,4.436Z" style="fill:#575756;fill-rule:nonzero;"/></g></g></svg>